<?xml version="1.0" encoding="UTF-8" standalone="no"?>
<svg width="18px" height="18px" viewBox="0 0 18 18" version="1.1" xmlns="http://www.w3.org/2000/svg" xmlns:xlink="http://www.w3.org/1999/xlink">
    <!-- Generator: sketchtool 50.2 (55047) - http://www.bohemiancoding.com/sketch -->
    <title>649A5762-812A-44B1-8FB5-0EE9420A3AC6</title>
    <desc>Created with sketchtool.</desc>
    <defs></defs>
    <g id="Page-1" stroke="none" stroke-width="1" fill="none" fill-rule="evenodd">
        <g id="style-guide" transform="translate(-445.000000, -390.000000)" fill="#FFFFFF">
            <g id="loading" transform="translate(387.000000, 379.000000)">
                <path d="M66.6666667,15.0877193 C65.7946381,15.0877193 65.0877193,14.3808005 65.0877193,13.5087719 C65.0877193,12.6367434 65.7946381,11.9298246 66.6666667,11.9298246 C67.5386952,11.9298246 68.245614,12.6367434 68.245614,13.5087719 C68.245614,14.3808005 67.5386952,15.0877193 66.6666667,15.0877193 Z M66.6666667,28.7719298 C65.7946381,28.7719298 65.0877193,28.065011 65.0877193,27.1929825 C65.0877193,26.3209539 65.7946381,25.6140351 66.6666667,25.6140351 C67.5386952,25.6140351 68.245614,26.3209539 68.245614,27.1929825 C68.245614,28.065011 67.5386952,28.7719298 66.6666667,28.7719298 Z M71.9298246,20.3508772 C71.9298246,19.4788486 72.6367434,18.7719298 73.5087719,18.7719298 C74.3808005,18.7719298 75.0877193,19.4788486 75.0877193,20.3508772 C75.0877193,21.2229057 74.3808005,21.9298246 73.5087719,21.9298246 C72.6367434,21.9298246 71.9298246,21.2229057 71.9298246,20.3508772 Z M58.245614,20.3508772 C58.245614,19.4788486 58.9525329,18.7719298 59.8245614,18.7719298 C60.69659,18.7719298 61.4035088,19.4788486 61.4035088,20.3508772 C61.4035088,21.2229057 60.69659,21.9298246 59.8245614,21.9298246 C58.9525329,21.9298246 58.245614,21.2229057 58.245614,20.3508772 Z M70.3882813,16.6292626 C69.771664,16.0126453 69.771664,15.0129111 70.3882813,14.3962938 C71.0048986,13.7796765 72.0046328,13.7796765 72.6212501,14.3962938 C73.2378674,15.0129111 73.2378674,16.0126453 72.6212501,16.6292626 C72.0046328,17.2458799 71.0048986,17.2458799 70.3882813,16.6292626 Z M60.7120832,26.3054606 C60.0954659,25.6888433 60.0954659,24.6891091 60.7120832,24.0724918 C61.3287005,23.4558745 62.3284347,23.4558745 62.945052,24.0724918 C63.5616693,24.6891091 63.5616693,25.6888433 62.945052,26.3054606 C62.3284347,26.9220779 61.3287005,26.9220779 60.7120832,26.3054606 Z M70.3882813,24.0724918 C71.0048986,23.4558745 72.0046328,23.4558745 72.6212501,24.0724918 C73.2378674,24.6891091 73.2378674,25.6888433 72.6212501,26.3054606 C72.0046328,26.9220779 71.0048986,26.9220779 70.3882813,26.3054606 C69.771664,25.6888433 69.771664,24.6891091 70.3882813,24.0724918 Z M60.7120832,14.3962938 C61.3287005,13.7796765 62.3284347,13.7796765 62.945052,14.3962938 C63.5616693,15.0129111 63.5616693,16.0126453 62.945052,16.6292626 C62.3284347,17.2458799 61.3287005,17.2458799 60.7120832,16.6292626 C60.0954659,16.0126453 60.0954659,15.0129111 60.7120832,14.3962938 Z"></path>
            </g>
        </g>
    </g>
</svg>